<svg width="1000" height="400"
    xmlns="http://www.w3.org/2000/svg" version="1.0">
    <metadata>image/svg+xml</metadata>

    <g>
        <title>Layer 1</title>
        <path d="m984.5105,25.41596l-230.51422,0l0,78.51144l67.39781,0l0,270.66615l95.71893,0l0,-270.66615l67.39748,0l0,-78.51144zm-253.45829,348.81894l-95.71919,0l0,-348.81894l95.71919,0l0,348.81894zm-111.85159,0l-106.47385,0l-126.54981,-135.87062l0,-77.79425l122.60625,-135.51274l109.70066,0l-141.24836,175.66465l141.96511,173.51296z" fill-rule="evenodd" fill="#ffffff" id="svg_1"/>
        <path d="m90.41584,153.04142c-18.28359,22.22712 -34.05727,46.60505 -46.24655,72.77533l319.06361,148.41815l-272.81706,-221.19348z" fill-rule="evenodd" fill="#32a189" id="svg_2"/>
        <path d="m363.2329,374.2349l-148.77665,-316.5539c-26.52903,12.18859 -50.90675,27.24608 -73.13364,45.17095l221.91029,271.38295z" fill-rule="evenodd" fill="#32a189" id="svg_3"/>
        <path d="m363.2329,374.2349l0.35846,-348.81894l-2.86773,0c-28.32151,0 -55.9259,3.58539 -82.45464,10.03822l84.96391,338.78072z" fill-rule="evenodd" fill="#ffffff" id="svg_4"/>
        <path d="m21.22555,288.91246c-7.16982,27.24608 -10.75485,55.92567 -11.11344,85.32244l353.12079,0l-342.00735,-85.32244z" fill-rule="evenodd" fill="#32a189" id="svg_9"/>
    </g>
</svg>
